<svg width="21" height="23" viewBox="0 0 21 23" fill="none" xmlns="http://www.w3.org/2000/svg">
<path d="M12.25 7.83325H3.5C2.53487 7.83325 1.75 8.6555 1.75 9.66659V18.8333C1.75 19.8443 2.53487 20.6666 3.5 20.6666H12.25C13.2151 20.6666 14 19.8443 14 18.8333V9.66659C14 8.6555 13.2151 7.83325 12.25 7.83325Z" fill="#F5F5F5"/>
<path d="M17.5 2.33325H8.75C8.28587 2.33325 7.84075 2.52641 7.51256 2.87022C7.18437 3.21404 7 3.68035 7 4.16659V5.99992H14C14.4641 5.99992 14.9092 6.19307 15.2374 6.53689C15.5656 6.88071 15.75 7.34702 15.75 7.83325V15.1666H17.5C17.9641 15.1666 18.4092 14.9734 18.7374 14.6296C19.0656 14.2858 19.25 13.8195 19.25 13.3333V4.16659C19.25 3.68035 19.0656 3.21404 18.7374 2.87022C18.4092 2.52641 17.9641 2.33325 17.5 2.33325Z" fill="#F5F5F5"/>
</svg>
